<svg xmlns="http://www.w3.org/2000/svg" width="1200" height="630" viewBox="0 0 1200 630" role="img" aria-labelledby="title desc">
 <title id="title">백골뱅이탕 한 냄비 — 용산 · 동표골뱅이</title><desc id="desc">맛있는 녀석들 게시글을 위한 백골뱅이탕 한 냄비 일러스트. 실제 음식 사진이 아닌 주제 표현입니다.</desc>
 <g font-family="'Malgun Gothic','Apple SD Gothic Neo',sans-serif">
 <rect x="0" y="0" width="1200" height="630" rx="0" fill="#E0EBED"/><ellipse cx="600" cy="382" rx="465" ry="185" fill="#FFFFFF65"/>
 <path d="M0 521 Q300 469 600 531 T1200 515 V630 H0 Z" fill="#FFFFFF60" stroke="none" stroke-width="1" stroke-linecap="round" stroke-linejoin="round"/>
 <text x="600" y="55" text-anchor="middle" fill="#4D7983" font-size="24" font-weight="700">맛있는 녀석들</text><text x="600" y="127" text-anchor="middle" fill="#34483E" font-size="57" font-weight="700">백골뱅이탕 한 냄비</text>
 <g transform="translate(600 352) scale(1.12)"><ellipse cx="0" cy="95" rx="205" ry="24" fill="#00000012"/><path d="M-214 -10 Q-200 117 0 125 Q200 117 214 -10 Z" fill="#314C4B" stroke="none" stroke-width="1" stroke-linecap="round" stroke-linejoin="round"/><ellipse cx="0" cy="-10" rx="215" ry="92" fill="#45605A"/><ellipse cx="0" cy="-10" rx="193" ry="75" fill="#E7CFA3"/><g transform="translate(-127 -28) rotate(25)"><path d="M-26 23 Q-49 -6 -5 -38 Q25 -41 30 -7 Q34 22 -26 23" fill="#D8B992" stroke="#8E775E" stroke-width="3" stroke-linecap="round" stroke-linejoin="round"/><path d="M-17 13 Q-34 -9 -5 -21 Q17 -23 14 -3 Q8 9 -5 2" fill="none" stroke="#A48769" stroke-width="4" stroke-linecap="round" stroke-linejoin="round"/></g><g transform="translate(-86 13) rotate(25)"><path d="M-26 23 Q-49 -6 -5 -38 Q25 -41 30 -7 Q34 22 -26 23" fill="#D8B992" stroke="#8E775E" stroke-width="3" stroke-linecap="round" stroke-linejoin="round"/><path d="M-17 13 Q-34 -9 -5 -21 Q17 -23 14 -3 Q8 9 -5 2" fill="none" stroke="#A48769" stroke-width="4" stroke-linecap="round" stroke-linejoin="round"/></g><g transform="translate(-45 -28) rotate(25)"><path d="M-26 23 Q-49 -6 -5 -38 Q25 -41 30 -7 Q34 22 -26 23" fill="#D8B992" stroke="#8E775E" stroke-width="3" stroke-linecap="round" stroke-linejoin="round"/><path d="M-17 13 Q-34 -9 -5 -21 Q17 -23 14 -3 Q8 9 -5 2" fill="none" stroke="#A48769" stroke-width="4" stroke-linecap="round" stroke-linejoin="round"/></g><g transform="translate(-4 13) rotate(25)"><path d="M-26 23 Q-49 -6 -5 -38 Q25 -41 30 -7 Q34 22 -26 23" fill="#D8B992" stroke="#8E775E" stroke-width="3" stroke-linecap="round" stroke-linejoin="round"/><path d="M-17 13 Q-34 -9 -5 -21 Q17 -23 14 -3 Q8 9 -5 2" fill="none" stroke="#A48769" stroke-width="4" stroke-linecap="round" stroke-linejoin="round"/></g><g transform="translate(37 -28) rotate(25)"><path d="M-26 23 Q-49 -6 -5 -38 Q25 -41 30 -7 Q34 22 -26 23" fill="#D8B992" stroke="#8E775E" stroke-width="3" stroke-linecap="round" stroke-linejoin="round"/><path d="M-17 13 Q-34 -9 -5 -21 Q17 -23 14 -3 Q8 9 -5 2" fill="none" stroke="#A48769" stroke-width="4" stroke-linecap="round" stroke-linejoin="round"/></g><g transform="translate(78 13) rotate(25)"><path d="M-26 23 Q-49 -6 -5 -38 Q25 -41 30 -7 Q34 22 -26 23" fill="#D8B992" stroke="#8E775E" stroke-width="3" stroke-linecap="round" stroke-linejoin="round"/><path d="M-17 13 Q-34 -9 -5 -21 Q17 -23 14 -3 Q8 9 -5 2" fill="none" stroke="#A48769" stroke-width="4" stroke-linecap="round" stroke-linejoin="round"/></g><g transform="translate(119 -28) rotate(25)"><path d="M-26 23 Q-49 -6 -5 -38 Q25 -41 30 -7 Q34 22 -26 23" fill="#D8B992" stroke="#8E775E" stroke-width="3" stroke-linecap="round" stroke-linejoin="round"/><path d="M-17 13 Q-34 -9 -5 -21 Q17 -23 14 -3 Q8 9 -5 2" fill="none" stroke="#A48769" stroke-width="4" stroke-linecap="round" stroke-linejoin="round"/></g><g transform="translate(-75 -28) rotate(-60)"><path d="M0 0 Q-30 -35 0 -58 Q30 -35 0 0" fill="#468A60" stroke="none" stroke-width="1" stroke-linecap="round" stroke-linejoin="round"/><path d="M0 -5 L0 -43" fill="none" stroke="#B8D99B" stroke-width="3" stroke-linecap="round" stroke-linejoin="round"/></g><g transform="translate(52 -15) rotate(55)"><path d="M0 0 Q-30 -35 0 -58 Q30 -35 0 0" fill="#468A60" stroke="none" stroke-width="1" stroke-linecap="round" stroke-linejoin="round"/><path d="M0 -5 L0 -43" fill="none" stroke="#B8D99B" stroke-width="3" stroke-linecap="round" stroke-linejoin="round"/></g><g transform="translate(8 18) rotate(-15)"><path d="M0 0 Q-30 -35 0 -58 Q30 -35 0 0" fill="#468A60" stroke="none" stroke-width="1" stroke-linecap="round" stroke-linejoin="round"/><path d="M0 -5 L0 -43" fill="none" stroke="#B8D99B" stroke-width="3" stroke-linecap="round" stroke-linejoin="round"/></g></g>
 <g transform="translate(215 403) rotate(-35)"><path d="M0 0 Q-30 -35 0 -58 Q30 -35 0 0" fill="#468A60" stroke="none" stroke-width="1" stroke-linecap="round" stroke-linejoin="round"/><path d="M0 -5 L0 -43" fill="none" stroke="#B8D99B" stroke-width="3" stroke-linecap="round" stroke-linejoin="round"/></g><g transform="translate(991 380) rotate(50)"><path d="M0 0 Q-30 -35 0 -58 Q30 -35 0 0" fill="#468A60" stroke="none" stroke-width="1" stroke-linecap="round" stroke-linejoin="round"/><path d="M0 -5 L0 -43" fill="none" stroke="#B8D99B" stroke-width="3" stroke-linecap="round" stroke-linejoin="round"/></g><ellipse cx="260" cy="285" rx="8" ry="8" fill="#4D7983"/><ellipse cx="942" cy="456" rx="7" ry="7" fill="#4D7983"/>
 <text x="600" y="568" text-anchor="middle" fill="#43574D" font-size="31" font-weight="600">용산 · 동표골뱅이</text><text x="600" y="606" text-anchor="middle" fill="#4D7983" font-size="17" font-weight="400">오늘의 맛집 · 메뉴 일러스트</text>
 </g></svg>